<svg width="150.000000" height="150.000000" viewBox="0 0 150 150" fill="none" xmlns="http://www.w3.org/2000/svg" xmlns:xlink="http://www.w3.org/1999/xlink">
	<desc>
			Created with Pixso.
	</desc>
	<defs>
		<clipPath id="clip1_108">
			<rect id="coding 1" width="70.000000" height="70.000000" transform="matrix(1 0 0 -1 40 110)" fill="white" fill-opacity="0"/>
		</clipPath>
	</defs>
	<circle id="Ellipse 104" cx="75.000000" cy="75.000000" r="73.000000" stroke="#0082F4" stroke-opacity="1.000000" stroke-width="4.000000"/>
	<rect id="coding 1" width="70.000000" height="70.000000" transform="matrix(1 0 0 -1 40 110)" fill="#FFFFFF" fill-opacity="0"/>
	<g clip-path="url(#clip1_108)">
		<path id="Vector" d="M107.76 61.74L102.86 53.25C102.56 52.74 101.94 52.53 101.4 52.75L94.19 55.66C93.59 55.9 93.3 56.59 93.54 57.19C93.78 57.79 94.46 58.08 95.06 57.83L101.34 55.3L105.22 62.03L99.9 66.19C99.52 66.49 99.36 66.99 99.5 67.46C100.97 72.26 101.03 77.55 99.5 82.53C99.36 83 99.52 83.5 99.9 83.8L105.22 87.96L101.34 94.69L95.06 92.16C94.61 91.97 94.1 92.09 93.77 92.45C90.24 96.23 85.73 98.84 80.72 99.98C80.25 100.09 79.89 100.48 79.82 100.96L78.88 107.65L71.11 107.65L70.17 100.96C70.1 100.48 69.74 100.09 69.27 99.98C64.26 98.84 59.75 96.23 56.22 92.45C55.89 92.09 55.38 91.98 54.93 92.16L48.65 94.69L44.77 87.96L50.09 83.8C50.47 83.5 50.63 83 50.49 82.53C49.02 77.73 48.96 72.44 50.49 67.46C50.63 66.99 50.47 66.49 50.09 66.19L44.77 62.03L48.65 55.3L54.93 57.83C55.38 58.02 55.89 57.9 56.22 57.55C59.75 53.76 64.26 51.15 69.27 50.01C69.74 49.9 70.1 49.51 70.17 49.03L71.11 42.34L78.88 42.34L79.82 49.03C79.89 49.51 80.25 49.9 80.72 50.01C83.47 50.63 86.07 51.7 88.47 53.19C89.02 53.53 89.74 53.36 90.08 52.81C90.42 52.26 90.26 51.54 89.71 51.2C87.32 49.72 84.74 48.62 82.03 47.92L81.06 41C80.98 40.43 80.48 40 79.9 40L70.09 40C69.51 40 69.01 40.43 68.93 41L67.96 47.92C63.06 49.18 58.64 51.74 55.07 55.37L48.59 52.75C48.05 52.53 47.43 52.74 47.14 53.25L42.23 61.74C41.94 62.25 42.07 62.89 42.53 63.25L48.03 67.55C46.69 72.4 46.69 77.59 48.03 82.44L42.53 86.74C42.07 87.1 41.94 87.74 42.23 88.25L47.14 96.74C47.43 97.25 48.05 97.46 48.59 97.24L55.07 94.63C58.64 98.25 63.06 100.81 67.96 102.08L68.93 108.99C69.01 109.57 69.51 110 70.09 110L79.9 110C80.48 110 80.98 109.57 81.06 108.99L82.03 102.07C86.93 100.81 91.35 98.25 94.92 94.62L101.4 97.24C101.94 97.46 102.56 97.25 102.86 96.74L107.76 88.25C108.05 87.74 107.92 87.1 107.47 86.74L101.96 82.44C103.3 77.59 103.3 72.41 101.96 67.55L107.47 63.25C107.92 62.89 108.05 62.25 107.76 61.74ZM73.08 69.43L78.93 79.38C79.26 79.93 79.07 80.65 78.51 80.98C77.96 81.31 77.24 81.12 76.91 80.56L71.06 70.61C70.73 70.06 70.92 69.34 71.48 69.01C72.03 68.68 72.75 68.87 73.08 69.43ZM68.51 79.48C68.05 79.94 67.31 79.94 66.85 79.48L63.19 75.82C62.74 75.37 62.74 74.62 63.19 74.17L66.85 70.51C67.31 70.05 68.05 70.05 68.51 70.51C68.96 70.97 68.96 71.71 68.51 72.16L65.68 74.99L68.51 77.83C68.96 78.28 68.96 79.02 68.51 79.48ZM82.16 70.17C82.46 70.17 82.76 70.28 82.99 70.51L86.65 74.17C87.11 74.62 87.11 75.37 86.65 75.82L82.99 79.48C82.53 79.94 81.79 79.94 81.34 79.48C80.88 79.03 80.88 78.28 81.34 77.83L84.17 75L81.34 72.16C80.6 71.42 81.13 70.17 82.16 70.17ZM68.15 56.31C70.38 55.49 72.7 55.09 75.01 55.09C89.47 55.09 99.16 70.18 93.05 83.36C88.43 93.32 76.58 97.66 66.63 93.05C53.97 87.18 51.1 70.32 61.22 60.62C61.69 60.18 62.43 60.19 62.88 60.66C63.33 61.13 63.31 61.87 62.84 62.32C53.92 70.86 56.44 85.75 67.61 90.92C76.4 95 86.85 91.16 90.92 82.38C94.99 73.59 91.16 63.14 82.38 59.07C78.12 57.09 73.35 56.9 68.95 58.51C68.34 58.73 67.67 58.42 67.45 57.82C67.23 57.21 67.54 56.54 68.15 56.31Z" fill="#0082F4" fill-opacity="1.000000" fill-rule="nonzero"/>
	</g>
</svg>
