<svg width="39.000031" height="28.000000" viewBox="0 0 39 28" fill="none" xmlns="http://www.w3.org/2000/svg" xmlns:xlink="http://www.w3.org/1999/xlink">
	<desc>
			Created with Pixso.
	</desc>
	<defs/>
	<path id="Vector" d="M37.7 4.72C37.49 3.89 37.08 3.13 36.49 2.52C35.9 1.91 35.16 1.46 34.35 1.23C31.38 0.5 19.5 0.5 19.5 0.5C19.5 0.5 7.61 0.5 4.64 1.3C3.83 1.53 3.09 1.98 2.5 2.59C1.91 3.2 1.5 3.96 1.29 4.79C0.75 7.84 0.48 10.93 0.5 14.03C0.48 17.15 0.74 20.27 1.29 23.34C1.52 24.14 1.94 24.87 2.53 25.46C3.12 26.05 3.84 26.47 4.64 26.69C7.61 27.5 19.5 27.5 19.5 27.5C19.5 27.5 31.38 27.5 34.35 26.69C35.16 26.46 35.9 26.01 36.49 25.4C37.08 24.79 37.49 24.03 37.7 23.2C38.24 20.17 38.5 17.1 38.49 14.03C38.51 10.91 38.25 7.79 37.7 4.72Z" fill="#FFFFFF" fill-opacity="1.000000" fill-rule="nonzero"/>
	<path id="Vector" d="M36.49 2.52C35.9 1.91 35.16 1.46 34.35 1.23C31.38 0.5 19.5 0.5 19.5 0.5C19.5 0.5 7.61 0.5 4.64 1.3C3.83 1.53 3.09 1.98 2.5 2.59C1.91 3.2 1.5 3.96 1.29 4.79C0.75 7.84 0.48 10.93 0.5 14.03C0.48 17.15 0.74 20.27 1.29 23.34C1.52 24.14 1.94 24.87 2.53 25.46C3.12 26.05 3.84 26.47 4.64 26.69C7.61 27.5 19.5 27.5 19.5 27.5C19.5 27.5 31.38 27.5 34.35 26.69C35.16 26.46 35.9 26.01 36.49 25.4C37.08 24.79 37.49 24.03 37.7 23.2C38.24 20.17 38.5 17.1 38.49 14.03C38.51 10.91 38.25 7.79 37.7 4.72C37.49 3.89 37.08 3.13 36.49 2.52Z" stroke="#FFFFFF" stroke-opacity="1.000000" stroke-width="1.000000" stroke-linejoin="round"/>
	<path id="Vector" d="M14.51 19.07L23.79 13.8L23.79 13.78L14.51 8.5L14.5 8.51L14.5 19.07L14.51 19.07Z" fill="#C3C3C3" fill-opacity="1.000000" fill-rule="nonzero"/>
</svg>
