<svg width="35.000000" height="28.000000" viewBox="0 0 35 28" fill="none" xmlns="http://www.w3.org/2000/svg" xmlns:xlink="http://www.w3.org/1999/xlink">
	<desc>
			Created with Pixso.
	</desc>
	<defs/>
	<path id="Vector" d="M34.06 0.01C32.57 1.06 30.93 1.86 29.19 2.38C28.25 1.31 27.01 0.55 25.63 0.2C24.25 -0.14 22.8 -0.06 21.47 0.45C20.14 0.96 18.99 1.86 18.19 3.04C17.39 4.22 16.98 5.61 17 7.04L17 8.59C14.27 8.66 11.57 8.05 9.13 6.83C6.7 5.6 4.6 3.79 3.04 1.56C3.04 1.56 -3.17 15.52 10.79 21.72C7.6 23.89 3.79 24.98 -0.07 24.83C13.89 32.58 30.95 24.83 30.95 6.99C30.95 6.56 30.91 6.13 30.83 5.7C32.41 4.14 33.53 2.17 34.06 0.01Z" fill="#FFFFFF" fill-opacity="1.000000" fill-rule="nonzero"/>
</svg>
