<svg width="150.000000" height="150.000000" viewBox="0 0 150 150" fill="none" xmlns="http://www.w3.org/2000/svg" xmlns:xlink="http://www.w3.org/1999/xlink">
	<desc>
			Created with Pixso.
	</desc>
	<defs>
		<clipPath id="clip1_98">
			<rect id="delivery-clipboard 1" width="70.000000" height="70.000000" transform="translate(40.000000 40.000000)" fill="white" fill-opacity="0"/>
		</clipPath>
	</defs>
	<circle id="Ellipse 105" cx="75.000000" cy="75.000000" r="73.000000" stroke="#0082F4" stroke-opacity="1.000000" stroke-width="4.000000"/>
	<rect id="delivery-clipboard 1" width="70.000000" height="70.000000" transform="translate(40.000000 40.000000)" fill="#FFFFFF" fill-opacity="0"/>
	<g clip-path="url(#clip1_98)">
		<path id="Vector" d="M107.17 66.06L73.45 66.06L73.45 45.25C73.45 43.73 72.21 42.49 70.68 42.49L61.83 42.49C60.49 41.24 58.69 40.48 56.72 40.48C54.75 40.48 52.96 41.24 51.61 42.49L42.76 42.49C41.24 42.49 40 43.73 40 45.25L40 83.21C40 84.73 41.24 85.97 42.76 85.97L59.93 85.97L59.93 106.69C59.93 108.24 61.2 109.51 62.75 109.51L107.17 109.51C108.73 109.51 110 108.24 110 106.69L110 68.88C110 67.32 108.73 66.06 107.17 66.06ZM78.8 69.43L91.13 69.43L91.13 90.91L85.55 88.85C85.17 88.71 84.76 88.71 84.38 88.85L78.8 90.91L78.8 69.43L78.8 69.43ZM56.72 43.85C58.95 43.85 60.77 45.6 60.89 47.79L52.56 47.79C52.68 45.6 54.5 43.85 56.72 43.85ZM43.36 45.85L49.5 45.85C49.32 46.47 49.21 47.12 49.19 47.79L45.91 47.79C44.98 47.79 44.23 48.55 44.23 49.48C44.23 50.41 44.98 51.16 45.91 51.16L67.53 51.16C68.46 51.16 69.22 50.41 69.22 49.48C69.22 48.55 68.46 47.79 67.53 47.79L64.25 47.79C64.23 47.12 64.13 46.47 63.94 45.85L70.08 45.85L70.08 82.61L43.36 82.61L43.36 45.85ZM106.63 106.14L63.3 106.14L63.3 85.97L70.68 85.97C72.21 85.97 73.45 84.73 73.45 83.21L73.45 69.43L75.43 69.43L75.43 93.32C75.43 93.87 75.7 94.39 76.15 94.7C76.44 94.9 76.78 95.01 77.12 95.01C77.31 95.01 77.51 94.97 77.7 94.9L84.96 92.23L92.23 94.9C92.74 95.09 93.32 95.02 93.77 94.7C94.22 94.39 94.49 93.87 94.49 93.32L94.49 69.43L106.63 69.43L106.63 106.14L106.63 106.14Z" fill="#0082F4" fill-opacity="1.000000" fill-rule="nonzero"/>
		<path id="Vector" d="M62.36 62.1L54.15 70.3L51.09 67.24C50.43 66.58 49.37 66.58 48.71 67.24C48.05 67.9 48.05 68.96 48.71 69.62L52.96 73.88C53.28 74.19 53.71 74.37 54.15 74.37C54.6 74.37 55.03 74.19 55.34 73.88L64.74 64.48C65.4 63.82 65.4 62.76 64.74 62.1C64.08 61.44 63.01 61.44 62.36 62.1Z" fill="#0082F4" fill-opacity="1.000000" fill-rule="nonzero"/>
	</g>
</svg>

