<svg width="31.000000" height="31.000000" viewBox="0 0 31 31" fill="none" xmlns="http://www.w3.org/2000/svg" xmlns:xlink="http://www.w3.org/1999/xlink">
	<desc>
			Created with Pixso.
	</desc>
	<defs/>
	<path id="Vector" d="M7.75 0L23.25 0C27.53 0 31 3.46 31 7.75L31 23.25C31 27.53 27.53 31 23.25 31L7.75 31C3.46 31 0 27.53 0 23.25L0 7.75C0 3.46 3.46 0 7.75 0Z" fill="#FFFFFF" fill-opacity="1.000000" fill-rule="evenodd"/>
	<path id="Vector" d="M21.7 14.52C21.89 15.81 21.67 17.13 21.07 18.28C20.46 19.44 19.51 20.38 18.35 20.97C17.18 21.55 15.86 21.76 14.58 21.55C13.29 21.34 12.1 20.73 11.18 19.81C10.26 18.89 9.65 17.7 9.44 16.41C9.23 15.13 9.44 13.81 10.02 12.64C10.61 11.48 11.55 10.53 12.71 9.92C13.86 9.32 15.18 9.1 16.47 9.29C17.79 9.49 19.01 10.1 19.95 11.04C20.89 11.98 21.5 13.2 21.7 14.52Z" fill="#C3C3C3" fill-opacity="1.000000" fill-rule="nonzero"/>
</svg>
