<svg width="150.000000" height="150.000000" viewBox="0 0 150 150" fill="none" xmlns="http://www.w3.org/2000/svg" xmlns:xlink="http://www.w3.org/1999/xlink">
	<desc>
			Created with Pixso.
	</desc>
	<defs>
		<clipPath id="clip8703_2">
			<rect id="Frame" width="150.000000" height="150.000000" fill="white" fill-opacity="0"/>
		</clipPath>
	</defs>
	<rect id="Frame" width="150.000000" height="150.000000" fill="#FFFFFF" fill-opacity="0"/>
	<g clip-path="url(#clip8703_2)">
		<path id="Vector" d="M75 148C34.68 148 2 115.31 2 75C2 34.68 34.68 2 75 2C115.31 2 148 34.68 148 75C148 115.31 115.31 148 75 148Z" stroke="#0082F4" stroke-opacity="1.000000" stroke-width="4.000000"/>
		<path id="Vector" d="M89.4 75.25C94.59 71.29 98.8 66.18 101.7 60.33C104.6 54.47 106.11 48.03 106.11 41.5C106.11 41.28 106.02 41.07 105.87 40.92C105.72 40.77 105.51 40.68 105.29 40.68C95.85 40.68 86.67 43.83 79.23 49.64C76.36 51.88 73.78 54.47 71.56 57.36C70.78 57.84 69.86 58.04 68.95 57.94C68.04 57.83 67.2 57.42 66.55 56.78C65.48 55.71 64.02 55.11 62.51 55.11C61 55.1 59.55 55.7 58.47 56.77L50.35 64.78C50.27 64.86 50.21 64.95 50.17 65.05C50.13 65.15 50.1 65.26 50.1 65.36C50.1 65.47 50.13 65.58 50.17 65.68C50.21 65.78 50.27 65.87 50.35 65.95L55.05 70.59C56.24 71.76 57.75 72.53 59.39 72.8C61.04 73.07 62.72 72.83 64.22 72.11C64.22 72.12 64.21 72.13 64.21 72.14C64.17 72.27 64.17 72.42 64.21 72.56C64.25 72.7 64.32 72.83 64.42 72.93L66.79 75.3L61 76.52C60.86 76.55 60.72 76.62 60.61 76.72C60.5 76.82 60.43 76.95 60.38 77.09C60.34 77.23 60.34 77.38 60.37 77.53C60.41 77.67 60.49 77.8 60.59 77.91L63.5 80.82C62.84 80.42 62.13 80.14 61.38 79.97C61.14 79.91 60.91 79.87 60.68 79.84C60.39 79.81 60.1 79.79 59.81 79.78C58.85 79.78 57.9 79.96 57.01 80.32C56.12 80.69 55.31 81.23 54.64 81.91C53.94 82.6 53.38 83.42 53.01 84.32C52.63 85.23 52.43 86.2 52.43 87.18C52.43 87.39 52.52 87.6 52.67 87.75C52.82 87.9 53.02 87.99 53.23 88L53.85 88.01C52.66 89.67 52.15 91.73 52.45 93.75C52.49 93.94 52.59 94.1 52.74 94.22C52.88 94.34 53.07 94.41 53.26 94.41L55.5 94.41C55.72 94.41 55.92 94.32 56.08 94.17C56.23 94.02 56.32 93.81 56.32 93.59C56.32 93.37 56.23 93.16 56.08 93.01C55.92 92.85 55.72 92.77 55.5 92.77L54 92.77C53.98 91.67 54.22 89.6 56.21 87.85C56.33 87.74 56.42 87.6 56.46 87.44C56.5 87.28 56.49 87.11 56.43 86.95C56.38 86.8 56.28 86.67 56.14 86.57C56.01 86.47 55.85 86.42 55.68 86.42L54.13 86.38C54.31 85.12 54.89 83.96 55.79 83.08C56.31 82.55 56.93 82.14 57.61 81.86C58.29 81.57 59.02 81.43 59.75 81.42L59.8 81.42C59.93 81.43 60.06 81.43 60.19 81.44C59.69 81.74 59.26 82.14 58.94 82.63C58.63 83.12 58.42 83.67 58.35 84.25L57.88 88.05C57.87 88.16 57.88 88.28 57.91 88.39C57.95 88.5 58.01 88.61 58.08 88.69C58.16 88.78 58.25 88.85 58.36 88.9C58.47 88.95 58.58 88.97 58.7 88.97C58.73 88.97 58.76 88.97 58.8 88.96L62.6 88.49C63.18 88.42 63.73 88.22 64.22 87.9C64.7 87.58 65.11 87.15 65.41 86.65C65.42 86.8 65.43 86.95 65.43 87.1C65.43 87.85 65.28 88.58 65 89.27C64.71 89.96 64.29 90.59 63.76 91.11C63.69 91.19 63.62 91.28 63.58 91.38C63.54 91.48 63.52 91.59 63.52 91.69C63.52 91.8 63.54 91.91 63.58 92.01C63.62 92.11 63.68 92.2 63.76 92.28C63.83 92.36 63.92 92.42 64.02 92.46C64.13 92.5 64.23 92.52 64.34 92.52C64.45 92.52 64.56 92.5 64.66 92.46C64.76 92.41 64.85 92.35 64.92 92.27C65.71 91.49 66.31 90.53 66.67 89.47C67.03 88.42 67.15 87.3 67.01 86.19C66.98 85.96 66.94 85.73 66.89 85.5C66.72 84.74 66.43 84.02 66.03 83.35L68.88 86.2C68.99 86.3 69.11 86.38 69.26 86.41C69.4 86.45 69.54 86.45 69.68 86.41C69.82 86.37 69.95 86.29 70.05 86.19C70.15 86.09 70.23 85.96 70.26 85.82L71.66 80.17L73.79 82.29C73.89 82.39 74.01 82.47 74.15 82.5C74.29 82.54 74.44 82.54 74.58 82.51C74.62 82.49 74.67 82.48 74.72 82.47C73.97 83.97 73.71 85.67 73.97 87.33C74.24 88.99 75.01 90.53 76.19 91.73L80.83 96.46C80.98 96.62 81.19 96.72 81.42 96.73C81.64 96.72 81.85 96.62 82 96.46L90 88.33C91.07 87.25 91.67 85.8 91.67 84.28C91.67 82.77 91.07 81.31 90 80.24C89.36 79.59 88.95 78.75 88.84 77.85C88.74 76.94 88.93 76.03 89.4 75.25ZM104.46 42.33C104.41 44.82 104.13 47.31 103.63 49.75C100.85 48.21 98.56 45.93 97.02 43.17C99.47 42.66 101.96 42.38 104.46 42.33ZM56.2 69.42L52.09 65.36L59.63 57.94C60.39 57.17 61.43 56.75 62.51 56.75C63.59 56.75 64.62 57.17 65.39 57.94C65.98 58.53 66.7 58.98 67.49 59.27C68.28 59.55 69.13 59.66 69.96 59.58C67.86 62.7 66.18 66.09 64.96 69.66C63.74 70.73 62.16 71.31 60.54 71.26C58.91 71.22 57.36 70.56 56.2 69.42ZM64.21 85.31C64.1 85.72 63.86 86.08 63.54 86.36C63.22 86.64 62.82 86.81 62.4 86.87L59.64 87.21L59.98 84.45C60.04 84.02 60.22 83.62 60.51 83.29C60.79 82.96 61.17 82.73 61.59 82.62C61.96 82.53 62.35 82.53 62.72 82.63C63.08 82.74 63.41 82.93 63.68 83.21C63.95 83.48 64.14 83.82 64.23 84.19C64.32 84.55 64.32 84.94 64.21 85.31L64.21 85.31ZM69.02 84.01L62.82 77.81L68.17 76.68L70.3 78.81L69.02 84.01ZM74.61 80.8L65.92 72.11C66.07 71.59 66.22 71.08 66.39 70.57C66.39 70.56 66.4 70.56 66.4 70.56L66.4 70.55C68.37 64.57 71.69 59.12 76.1 54.62C80.51 50.12 85.89 46.7 91.83 44.6C92.99 44.2 94.17 43.85 95.35 43.55C97.13 46.91 99.88 49.65 103.25 51.41C99.74 65.41 88.95 76.83 74.61 80.8ZM88.84 87.15L81.41 94.69L77.36 90.58C76.2 89.4 75.54 87.82 75.51 86.17C75.49 84.52 76.1 82.93 77.22 81.71C80.75 80.53 84.1 78.88 87.2 76.82C87.12 77.65 87.23 78.5 87.51 79.29C87.8 80.08 88.25 80.8 88.84 81.39C89.6 82.16 90.03 83.2 90.03 84.28C90.03 85.36 89.6 86.39 88.84 87.15Z" fill="#0082F4" fill-opacity="1.000000" fill-rule="nonzero"/>
		<path id="Vector" d="M61.08 92.62C60.64 92.72 60.2 92.77 59.75 92.77L58.46 92.77C58.24 92.77 58.03 92.85 57.88 93.01C57.72 93.16 57.64 93.37 57.64 93.59C57.64 93.81 57.72 94.02 57.88 94.17C58.03 94.32 58.24 94.41 58.46 94.41L59.75 94.41C60.33 94.41 60.9 94.34 61.46 94.21C61.67 94.16 61.85 94.03 61.97 93.84C62.08 93.66 62.12 93.43 62.07 93.22C62.02 93.01 61.88 92.83 61.7 92.71C61.51 92.6 61.29 92.56 61.08 92.62Z" fill="#0082F4" fill-opacity="1.000000" fill-rule="nonzero"/>
		<path id="Vector" d="M94.09 75.67C94.28 75.67 94.47 75.6 94.61 75.48C95.2 74.99 95.78 74.49 96.33 73.97C96.42 73.9 96.48 73.81 96.53 73.71C96.57 73.61 96.6 73.51 96.6 73.4C96.61 73.29 96.59 73.18 96.56 73.08C96.52 72.98 96.46 72.89 96.39 72.81C96.31 72.73 96.23 72.66 96.13 72.62C96.03 72.57 95.92 72.55 95.81 72.54C95.71 72.54 95.6 72.56 95.5 72.6C95.39 72.63 95.3 72.69 95.22 72.77C94.68 73.26 94.13 73.75 93.57 74.22C93.44 74.32 93.34 74.47 93.3 74.63C93.25 74.79 93.26 74.97 93.32 75.13C93.37 75.28 93.48 75.42 93.62 75.52C93.76 75.62 93.92 75.67 94.09 75.67Z" fill="#0082F4" fill-opacity="1.000000" fill-rule="nonzero"/>
		<path id="Vector" d="M107.64 54.06C107.53 54.03 107.43 54.02 107.32 54.03C107.21 54.04 107.11 54.07 107.01 54.12C106.92 54.17 106.83 54.24 106.77 54.33C106.7 54.41 106.65 54.51 106.62 54.61C105.92 56.89 105.03 59.11 103.95 61.23C103.56 62.01 103.14 62.78 102.69 63.53C102.15 64.45 101.56 65.36 100.94 66.24C99.97 67.63 98.9 68.95 97.76 70.21C97.61 70.37 97.54 70.58 97.55 70.8C97.56 71.02 97.65 71.22 97.81 71.37C97.98 71.51 98.19 71.59 98.41 71.58C98.62 71.57 98.83 71.47 98.97 71.31C100.16 70.01 101.27 68.63 102.28 67.18C102.93 66.27 103.54 65.32 104.1 64.37C104.57 63.59 105.01 62.78 105.42 61.98C106.54 59.77 107.47 57.46 108.19 55.08C108.25 54.88 108.23 54.65 108.12 54.46C108.02 54.27 107.85 54.12 107.64 54.06Z" fill="#0082F4" fill-opacity="1.000000" fill-rule="nonzero"/>
		<path id="Vector" d="M42.86 74.24C42.97 74.24 43.08 74.22 43.18 74.18C43.28 74.14 43.37 74.08 43.44 74L44.07 73.38C44.22 73.22 44.31 73.01 44.31 72.8C44.3 72.58 44.22 72.38 44.07 72.22C43.91 72.07 43.71 71.99 43.49 71.98C43.28 71.98 43.07 72.07 42.91 72.22L42.28 72.84C42.17 72.96 42.09 73.11 42.06 73.26C42.03 73.42 42.04 73.59 42.11 73.74C42.17 73.89 42.27 74.02 42.41 74.11C42.54 74.2 42.7 74.24 42.86 74.24Z" fill="#0082F4" fill-opacity="1.000000" fill-rule="nonzero"/>
		<path id="Vector" d="M45.86 71.59L48.66 68.79C48.74 68.71 48.8 68.62 48.84 68.52C48.88 68.42 48.9 68.31 48.9 68.21C48.9 68.1 48.88 67.99 48.84 67.89C48.8 67.79 48.74 67.7 48.66 67.63C48.59 67.55 48.5 67.49 48.4 67.45C48.3 67.41 48.19 67.39 48.08 67.39C47.97 67.39 47.87 67.41 47.77 67.45C47.67 67.49 47.58 67.55 47.5 67.63L44.7 70.43C44.62 70.51 44.56 70.6 44.51 70.7C44.47 70.8 44.45 70.91 44.45 71.02C44.45 71.12 44.47 71.23 44.51 71.33C44.55 71.43 44.61 71.52 44.69 71.6C44.77 71.68 44.86 71.74 44.96 71.78C45.06 71.82 45.17 71.84 45.27 71.84C45.38 71.84 45.49 71.82 45.59 71.77C45.69 71.73 45.78 71.67 45.86 71.59Z" fill="#0082F4" fill-opacity="1.000000" fill-rule="nonzero"/>
		<path id="Vector" d="M43.52 77.07C43.67 77.22 43.88 77.31 44.1 77.31C44.32 77.31 44.53 77.22 44.68 77.07L47.98 73.77C48.06 73.69 48.12 73.6 48.16 73.5C48.2 73.41 48.22 73.3 48.22 73.19C48.22 73.08 48.2 72.98 48.16 72.88C48.12 72.78 48.06 72.69 47.98 72.61C47.9 72.53 47.81 72.47 47.71 72.43C47.61 72.39 47.51 72.37 47.4 72.37C47.29 72.37 47.19 72.39 47.09 72.43C46.99 72.47 46.9 72.53 46.82 72.61L43.52 75.91C43.44 75.99 43.38 76.08 43.34 76.18C43.3 76.28 43.28 76.38 43.28 76.49C43.28 76.6 43.3 76.7 43.34 76.8C43.38 76.9 43.44 76.99 43.52 77.07Z" fill="#0082F4" fill-opacity="1.000000" fill-rule="nonzero"/>
		<path id="Vector" d="M49.01 72.4C49.12 72.4 49.23 72.38 49.33 72.34C49.43 72.29 49.52 72.23 49.59 72.16L50.81 70.94C50.89 70.86 50.95 70.77 50.99 70.67C51.04 70.57 51.06 70.46 51.06 70.36C51.06 70.25 51.04 70.14 51 70.04C50.95 69.94 50.89 69.85 50.82 69.77C50.74 69.7 50.65 69.64 50.55 69.59C50.45 69.55 50.34 69.53 50.23 69.53C50.13 69.53 50.02 69.55 49.92 69.6C49.82 69.64 49.73 69.7 49.65 69.78L48.43 71C48.32 71.11 48.24 71.26 48.21 71.42C48.18 71.58 48.19 71.74 48.26 71.89C48.32 72.04 48.42 72.17 48.56 72.26C48.69 72.35 48.85 72.4 49.01 72.4Z" fill="#0082F4" fill-opacity="1.000000" fill-rule="nonzero"/>
		<path id="Vector" d="M45.66 78.08L42.01 81.72C41.86 81.88 41.77 82.08 41.77 82.3C41.78 82.52 41.86 82.72 42.02 82.88C42.17 83.03 42.38 83.12 42.59 83.12C42.81 83.12 43.02 83.03 43.17 82.88L46.82 79.24C46.89 79.16 46.95 79.07 47 78.97C47.04 78.87 47.06 78.76 47.06 78.66C47.06 78.55 47.04 78.44 47 78.34C46.96 78.24 46.9 78.15 46.82 78.07C46.74 78 46.65 77.94 46.55 77.89C46.45 77.85 46.34 77.83 46.24 77.83C46.13 77.83 46.02 77.86 45.92 77.9C45.82 77.94 45.73 78 45.66 78.08Z" fill="#0082F4" fill-opacity="1.000000" fill-rule="nonzero"/>
		<path id="Vector" d="M52.96 71.93C52.81 71.78 52.6 71.69 52.38 71.69C52.17 71.69 51.96 71.78 51.8 71.93L47.53 76.2C47.46 76.27 47.4 76.36 47.35 76.46C47.31 76.56 47.29 76.67 47.29 76.78C47.29 76.89 47.31 77 47.35 77.1C47.39 77.2 47.45 77.29 47.53 77.36C47.61 77.44 47.7 77.5 47.8 77.54C47.9 77.58 48 77.6 48.11 77.6C48.22 77.6 48.33 77.58 48.43 77.54C48.53 77.5 48.62 77.44 48.69 77.36L52.96 73.09C53.12 72.93 53.2 72.73 53.2 72.51C53.2 72.29 53.12 72.08 52.96 71.93Z" fill="#0082F4" fill-opacity="1.000000" fill-rule="nonzero"/>
		<path id="Vector" d="M69.1 98.4L68.47 99.03C68.32 99.19 68.23 99.4 68.23 99.61C68.23 99.83 68.32 100.04 68.47 100.19C68.63 100.35 68.84 100.43 69.05 100.43C69.27 100.43 69.48 100.35 69.63 100.19L70.26 99.56C70.41 99.41 70.5 99.2 70.5 98.99C70.5 98.77 70.41 98.56 70.26 98.41C70.1 98.26 69.9 98.17 69.68 98.17C69.46 98.17 69.26 98.25 69.1 98.4L69.1 98.4Z" fill="#0082F4" fill-opacity="1.000000" fill-rule="nonzero"/>
		<path id="Vector" d="M73.69 93.82L70.88 96.62C70.81 96.7 70.74 96.79 70.7 96.89C70.66 96.99 70.64 97.1 70.64 97.2C70.63 97.31 70.66 97.42 70.7 97.52C70.74 97.62 70.8 97.71 70.88 97.79C70.95 97.87 71.04 97.93 71.14 97.97C71.25 98.01 71.35 98.03 71.46 98.03C71.57 98.03 71.68 98.01 71.78 97.97C71.88 97.92 71.97 97.86 72.04 97.78L74.85 94.98C75 94.82 75.08 94.61 75.08 94.4C75.08 94.18 75 93.98 74.84 93.82C74.69 93.67 74.48 93.58 74.27 93.58C74.05 93.58 73.85 93.67 73.69 93.82Z" fill="#0082F4" fill-opacity="1.000000" fill-rule="nonzero"/>
		<path id="Vector" d="M69.71 103.26C69.86 103.41 70.07 103.5 70.29 103.5C70.51 103.5 70.72 103.41 70.87 103.26L74.17 99.96C74.25 99.88 74.31 99.79 74.35 99.69C74.39 99.59 74.42 99.49 74.42 99.38C74.42 99.27 74.4 99.16 74.36 99.06C74.31 98.96 74.25 98.87 74.18 98.79C74.1 98.72 74.01 98.65 73.91 98.61C73.81 98.57 73.7 98.55 73.59 98.55C73.48 98.55 73.38 98.57 73.28 98.62C73.18 98.66 73.08 98.72 73.01 98.8L69.71 102.1C69.56 102.25 69.47 102.46 69.47 102.68C69.47 102.9 69.56 103.11 69.71 103.26Z" fill="#0082F4" fill-opacity="1.000000" fill-rule="nonzero"/>
		<path id="Vector" d="M74.62 98.35C74.7 98.42 74.79 98.48 74.89 98.52C74.99 98.57 75.09 98.59 75.2 98.59C75.31 98.59 75.42 98.57 75.52 98.52C75.62 98.48 75.71 98.42 75.78 98.35L77 97.13C77.16 96.97 77.24 96.76 77.24 96.55C77.24 96.33 77.16 96.12 77 95.97C76.85 95.81 76.64 95.73 76.42 95.73C76.2 95.73 76 95.81 75.84 95.97L74.62 97.19C74.55 97.26 74.49 97.35 74.44 97.45C74.4 97.55 74.38 97.66 74.38 97.77C74.38 97.87 74.4 97.98 74.44 98.08C74.49 98.18 74.55 98.27 74.62 98.35Z" fill="#0082F4" fill-opacity="1.000000" fill-rule="nonzero"/>
		<path id="Vector" d="M71.84 104.27L68.2 107.91C68.12 107.99 68.06 108.08 68.02 108.18C67.98 108.28 67.95 108.38 67.95 108.49C67.95 108.6 67.97 108.71 68.02 108.81C68.06 108.91 68.12 109 68.19 109.08C68.27 109.15 68.36 109.21 68.46 109.25C68.56 109.3 68.67 109.32 68.78 109.32C68.89 109.32 68.99 109.29 69.09 109.25C69.19 109.21 69.28 109.15 69.36 109.07L73 105.43C73.08 105.35 73.14 105.26 73.18 105.16C73.23 105.06 73.25 104.95 73.25 104.85C73.25 104.74 73.23 104.63 73.19 104.53C73.15 104.43 73.09 104.34 73.01 104.26C72.93 104.19 72.84 104.13 72.74 104.08C72.64 104.04 72.53 104.02 72.43 104.02C72.32 104.02 72.21 104.04 72.11 104.09C72.01 104.13 71.92 104.19 71.84 104.27Z" fill="#0082F4" fill-opacity="1.000000" fill-rule="nonzero"/>
		<path id="Vector" d="M77.99 98.12L73.72 102.39C73.65 102.46 73.58 102.55 73.54 102.65C73.5 102.75 73.48 102.86 73.48 102.97C73.48 103.08 73.5 103.19 73.54 103.29C73.58 103.39 73.64 103.48 73.72 103.55C73.79 103.63 73.89 103.69 73.99 103.73C74.09 103.77 74.19 103.79 74.3 103.79C74.41 103.79 74.52 103.77 74.62 103.73C74.72 103.69 74.81 103.63 74.88 103.55L79.15 99.28C79.23 99.2 79.29 99.11 79.33 99.01C79.38 98.91 79.4 98.8 79.4 98.7C79.4 98.59 79.38 98.48 79.34 98.38C79.29 98.28 79.23 98.19 79.16 98.11C79.08 98.04 78.99 97.98 78.89 97.93C78.79 97.89 78.68 97.87 78.57 97.87C78.47 97.87 78.36 97.89 78.26 97.94C78.16 97.98 78.07 98.04 77.99 98.12Z" fill="#0082F4" fill-opacity="1.000000" fill-rule="nonzero"/>
		<path id="Vector" d="M101.22 88.16C100.55 87.94 99.94 87.56 99.44 87.05C98.93 86.55 98.56 85.94 98.33 85.26C98.28 85.1 98.17 84.96 98.03 84.86C97.89 84.76 97.73 84.7 97.55 84.7C97.38 84.7 97.21 84.76 97.07 84.86C96.93 84.96 96.83 85.1 96.78 85.26C96.55 85.94 96.17 86.55 95.67 87.05C95.17 87.56 94.56 87.94 93.89 88.16C93.72 88.22 93.58 88.32 93.48 88.46C93.38 88.6 93.33 88.77 93.33 88.94C93.33 89.11 93.38 89.28 93.48 89.42C93.58 89.56 93.72 89.66 93.89 89.72C94.56 89.95 95.17 90.33 95.67 90.83C96.17 91.33 96.55 91.94 96.78 92.62C96.83 92.78 96.93 92.92 97.07 93.02C97.21 93.12 97.38 93.18 97.55 93.18C97.73 93.18 97.89 93.12 98.03 93.02C98.17 92.92 98.28 92.78 98.33 92.62C98.56 91.94 98.93 91.33 99.44 90.83C99.94 90.33 100.55 89.95 101.22 89.72C101.39 89.66 101.53 89.56 101.63 89.42C101.73 89.28 101.78 89.11 101.78 88.94C101.78 88.77 101.73 88.6 101.63 88.46C101.53 88.32 101.39 88.22 101.22 88.16ZM97.55 90.54C97.12 89.91 96.58 89.37 95.96 88.94C96.58 88.51 97.12 87.97 97.55 87.34C97.98 87.97 98.52 88.51 99.15 88.94C98.52 89.37 97.98 89.91 97.55 90.54Z" fill="#0082F4" fill-opacity="1.000000" fill-rule="nonzero"/>
		<path id="Vector" d="M43.03 56.77C43.7 57 44.31 57.38 44.81 57.88C45.31 58.38 45.69 58.99 45.92 59.67C45.97 59.83 46.07 59.97 46.21 60.07C46.35 60.17 46.52 60.23 46.69 60.23C46.87 60.23 47.03 60.17 47.17 60.07C47.31 59.97 47.42 59.83 47.47 59.67C47.7 58.99 48.08 58.38 48.58 57.88C49.08 57.38 49.69 57 50.36 56.77C50.53 56.71 50.67 56.61 50.77 56.47C50.87 56.33 50.92 56.16 50.92 55.99C50.92 55.82 50.87 55.65 50.77 55.51C50.67 55.37 50.53 55.27 50.36 55.21C49.69 54.99 49.08 54.61 48.58 54.1C48.08 53.6 47.7 52.99 47.47 52.31C47.42 52.15 47.31 52.01 47.17 51.91C47.03 51.81 46.87 51.75 46.69 51.75C46.52 51.75 46.35 51.81 46.21 51.91C46.07 52.01 45.97 52.15 45.92 52.31C45.69 52.99 45.31 53.6 44.81 54.1C44.31 54.61 43.7 54.99 43.03 55.21C42.86 55.27 42.72 55.37 42.62 55.51C42.52 55.65 42.47 55.82 42.47 55.99C42.47 56.16 42.52 56.33 42.62 56.47C42.72 56.61 42.86 56.71 43.03 56.77ZM46.69 54.39C47.12 55.02 47.67 55.56 48.29 55.99C47.67 56.42 47.12 56.96 46.69 57.59C46.26 56.96 45.72 56.42 45.1 55.99C45.72 55.56 46.26 55.02 46.69 54.39Z" fill="#0082F4" fill-opacity="1.000000" fill-rule="nonzero"/>
		<path id="Vector" d="M57.36 48.88C58.19 48.88 58.87 48.21 58.87 47.38C58.87 46.55 58.19 45.87 57.36 45.87C56.53 45.87 55.86 46.55 55.86 47.38C55.86 48.21 56.53 48.88 57.36 48.88Z" fill="#0082F4" fill-opacity="1.000000" fill-rule="nonzero"/>
		<path id="Vector" d="M94.96 102.34C95.79 102.34 96.46 101.67 96.46 100.84C96.46 100 95.79 99.33 94.96 99.33C94.13 99.33 93.46 100 93.46 100.84C93.46 101.67 94.13 102.34 94.96 102.34Z" fill="#0082F4" fill-opacity="1.000000" fill-rule="nonzero"/>
		<path id="Vector" d="M86.03 54.76C85.05 54.76 84.08 55 83.21 55.47C82.34 55.93 81.6 56.6 81.05 57.42C80.5 58.24 80.17 59.18 80.07 60.17C79.97 61.15 80.12 62.14 80.5 63.05C80.87 63.96 81.47 64.76 82.23 65.39C82.99 66.01 83.9 66.44 84.87 66.63C85.83 66.83 86.83 66.78 87.78 66.49C88.72 66.21 89.58 65.69 90.28 65C91.11 64.16 91.69 63.09 91.92 61.92C92.15 60.76 92.03 59.55 91.58 58.46C91.12 57.36 90.35 56.43 89.37 55.77C88.38 55.11 87.22 54.76 86.03 54.76ZM89.12 63.84C88.51 64.44 87.73 64.86 86.88 65.03C86.04 65.2 85.16 65.11 84.37 64.78C83.57 64.45 82.89 63.89 82.41 63.18C81.93 62.46 81.68 61.62 81.68 60.75C81.68 59.89 81.93 59.05 82.41 58.33C82.89 57.62 83.57 57.06 84.37 56.73C85.16 56.4 86.04 56.31 86.88 56.48C87.73 56.65 88.51 57.06 89.12 57.67C89.93 58.49 90.39 59.6 90.39 60.75C90.39 61.91 89.93 63.02 89.12 63.84Z" fill="#0082F4" fill-opacity="1.000000" fill-rule="nonzero"/>
	</g>
</svg>
